<svg xmlns="http://www.w3.org/2000/svg" width="24" height="24" viewBox="0 0 24 24"><g fill="none" fill-rule="evenodd"><polygon points="0 0 24 0 24 24 0 24"/><path fill="#0B0D0E" fill-rule="nonzero" d="M15,13 L15,5 C15,3.34 13.66,2 12,2 C10.34,2 9,3.34 9,5 L9,13 C7.79,13.91 7,15.37 7,17 C7,19.76 9.24,22 12,22 C14.76,22 17,19.76 17,17 C17,15.37 16.21,13.91 15,13 Z M11,11 L11,5 C11,4.45 11.45,4 12,4 C12.55,4 13,4.45 13,5 L13,6 L12,6 L12,7 L13,7 L13,8 L13,9 L12,9 L12,10 L13,10 L13,11 L11,11 Z"/></g></svg>